<?xml version="1.0" encoding="UTF-8" standalone="no"?>
<!-- Created with Inkscape (http://www.inkscape.org/) -->

<svg
   width="36.667446mm"
   height="32.324684mm"
   viewBox="0 0 36.667446 32.324684"
   version="1.1"
   id="svg1"
   inkscape:version="1.3 (0e150ed6c4, 2023-07-21)"
   sodipodi:docname="Stamp.svg"
   xmlns:inkscape="http://www.inkscape.org/namespaces/inkscape"
   xmlns:sodipodi="http://sodipodi.sourceforge.net/DTD/sodipodi-0.dtd"
   xmlns="http://www.w3.org/2000/svg"
   xmlns:svg="http://www.w3.org/2000/svg">
  <sodipodi:namedview
     id="namedview1"
     pagecolor="#ffffff"
     bordercolor="#000000"
     borderopacity="0.25"
     inkscape:showpageshadow="2"
     inkscape:pageopacity="0.0"
     inkscape:pagecheckerboard="0"
     inkscape:deskcolor="#d1d1d1"
     inkscape:document-units="mm"
     inkscape:zoom="2.9219977"
     inkscape:cx="327.68677"
     inkscape:cy="433.26523"
     inkscape:window-width="1920"
     inkscape:window-height="991"
     inkscape:window-x="-9"
     inkscape:window-y="-9"
     inkscape:window-maximized="1"
     inkscape:current-layer="layer1"
     showgrid="false" />
  <defs
     id="defs1" />
  <g
     inkscape:label="Layer 1"
     inkscape:groupmode="layer"
     id="layer1"
     transform="translate(-70.310884,-9.4383142)">
    <path
       id="path13"
       style="fill:#f1b546;fill-opacity:1;stroke:none;stroke-width:0.444;stroke-linecap:round;stroke-linejoin:round;stroke-dasharray:none"
       d="m 98.447558,9.4398371 c -3.35694,0.0564 -7.211646,1.6570099 -10.500126,4.7614699 h -5.2e-4 l -5.3e-4,-10e-4 a 1.1492846,1.1226012 0 0 0 -0.032,1.586989 1.1492846,1.1226012 0 0 0 1.62522,0.0315 c 3.24278,-3.060979 7.027146,-4.439309 10.034526,-4.076239 1.333012,0.16127 2.500202,0.67151 3.369822,1.53531 0.88296,0.8777 1.48417,2.142839 1.67277,3.805969 0.51794,4.564011 -1.99596,11.831601 -9.919298,21.966621 -1.23064,-12.52077 -6.02521,-19.43606 -10.95591,-22.161441 -2.93417,-1.621769 -5.94336,-1.800329 -8.37364,-0.82114 -2.47195,0.99543 -4.32073,3.164571 -4.88342,6.216671 -0.84354,4.57139 1.2754,11.20791 8.83046,18.74046 0.41859,0.43524 0.70621,0.66335 1.17409,0.72347 0.40736,0.0527 0.77176,-0.0427 1.15135,-0.21084 l 0.001,0.002 c 0.44337,-0.19678 0.79497,-0.53853 1.01751,-0.95653 0.20317,-0.38066 0.30248,-0.83293 0.26613,-1.29346 l -0.009,-0.0615 c -0.39501,-2.926 -0.58237,-5.62531 -0.43046,-8.08994 0.14796,-2.39999 0.62083,-4.57317 1.54202,-6.51278 a 1.1492846,1.1226012 0 0 0 -0.56223,-1.48984 1.1492846,1.1226012 0 0 0 -1.52498,0.54932 c -1.04858,2.20707 -1.58465,4.64755 -1.74924,7.32152 -0.15311,2.48439 0.0162,5.17446 0.39015,8.07083 -6.64895,-6.7674 -8.55373,-12.51788 -7.83828,-16.39745 0.41474,-2.24692 1.73806,-3.82898 3.49798,-4.53771 1.80142,-0.72581 4.08421,-0.56357 6.36654,0.69763 4.39869,2.4313 8.69381,8.80956 9.81955,20.55947 -0.0166,0.42051 0.0871,0.83934 0.28319,1.19889 0.22339,0.40997 0.57101,0.74829 1.00717,0.94155 l 5e-4,-0.002 c 0.3921,0.17367 0.77916,0.26068 1.19269,0.19637 0.480566,-0.075 0.705186,-0.23903 1.199406,-0.79736 8.660052,-10.93116 11.376402,-18.95385 10.792622,-24.099311 -0.24841,-2.192989 -1.08342,-3.903289 -2.32076,-5.132499 -1.2509,-1.24279 -2.88824,-1.9716199 -4.728912,-2.1941799 -0.45614,-0.0551 -0.92551,-0.0789 -1.40509,-0.0708 z"
       inkscape:export-filename="Auric Smiles full 2.svg"
       inkscape:export-xdpi="300"
       inkscape:export-ydpi="300" />
  </g>
</svg>
